<svg xmlns="http://www.w3.org/2000/svg" width="167.5" height="167.5" viewBox="0 0 167.5 167.5">
  <circle cx="83.75" cy="83.75" r="83.75" fill="#1DB954"/>
  <path d="M121.2 122.3c-1.5 2.5-4.7 3.3-7.2 1.8-19.1-11.7-43.1-14.3-71.4-7.9-2.8.6-5.7-1.1-6.4-3.9s1.1-5.7 3.9-6.4c31-7.1 57.6-4 79.3 9.3 2.5 1.4 3.3 4.6 1.8 7.1zm11-22.9c-1.9 3.1-5.9 4-9 2.1-21.8-13.4-55-17.3-80.8-9.5-3.5 1.1-7.2-1-8.2-4.5s1-7.2 4.5-8.2c29.4-8.9 66.2-4.6 91.4 10.9 3.1 1.9 4 5.9 2.1 9.2zm.9-24.1c-2.3 3.8-7.3 5-11.1 2.7-25.4-15.5-67.4-16.9-91.8-9.5-4.4 1.3-8.9-1.2-10.3-5.6s1.2-8.9 5.6-10.3c28.9-8.7 75.3-7.1 104.9 11 3.8 2.3 5 7.3 2.7 11.1z" fill="#000"/>

</svg>
